<mxfile host="app.diagrams.net" modified="2024-01-15T15:56:43.586Z" agent="Mozilla/5.0 (Windows NT 10.0; Win64; x64) AppleWebKit/537.36 (KHTML, like Gecko) Chrome/119.0.0.0 Safari/537.36 OPR/105.0.0.0" etag="OcEpEO1j2_PHfHfmp6Rd" version="22.1.18" type="google">
  <diagram name="Página-1" id="h4ii9I3WyL2hxT1Sq3Jk">
    <mxGraphModel dx="1813" dy="766" grid="1" gridSize="10" guides="1" tooltips="1" connect="1" arrows="1" fold="1" page="1" pageScale="1" pageWidth="827" pageHeight="1169" math="0" shadow="0">
      <root>
        <mxCell id="0" />
        <mxCell id="1" parent="0" />
        <mxCell id="nhrQdfe7mG7ORGk9pAJW-68" style="edgeStyle=orthogonalEdgeStyle;rounded=0;orthogonalLoop=1;jettySize=auto;html=1;exitX=0;exitY=0.5;exitDx=0;exitDy=0;entryX=1;entryY=0;entryDx=0;entryDy=0;" edge="1" parent="1" source="nhrQdfe7mG7ORGk9pAJW-1" target="nhrQdfe7mG7ORGk9pAJW-38">
          <mxGeometry relative="1" as="geometry" />
        </mxCell>
        <mxCell id="nhrQdfe7mG7ORGk9pAJW-69" style="edgeStyle=orthogonalEdgeStyle;rounded=0;orthogonalLoop=1;jettySize=auto;html=1;exitX=0.5;exitY=1;exitDx=0;exitDy=0;entryX=0;entryY=0;entryDx=0;entryDy=0;" edge="1" parent="1" source="nhrQdfe7mG7ORGk9pAJW-1" target="nhrQdfe7mG7ORGk9pAJW-13">
          <mxGeometry relative="1" as="geometry" />
        </mxCell>
        <mxCell id="nhrQdfe7mG7ORGk9pAJW-70" style="edgeStyle=orthogonalEdgeStyle;rounded=0;orthogonalLoop=1;jettySize=auto;html=1;exitX=1;exitY=0.5;exitDx=0;exitDy=0;entryX=1;entryY=0;entryDx=0;entryDy=0;" edge="1" parent="1" source="nhrQdfe7mG7ORGk9pAJW-1" target="nhrQdfe7mG7ORGk9pAJW-32">
          <mxGeometry relative="1" as="geometry" />
        </mxCell>
        <mxCell id="nhrQdfe7mG7ORGk9pAJW-71" style="edgeStyle=orthogonalEdgeStyle;rounded=0;orthogonalLoop=1;jettySize=auto;html=1;exitX=1;exitY=1;exitDx=0;exitDy=0;entryX=0;entryY=1;entryDx=0;entryDy=0;" edge="1" parent="1" source="nhrQdfe7mG7ORGk9pAJW-1" target="nhrQdfe7mG7ORGk9pAJW-62">
          <mxGeometry relative="1" as="geometry">
            <mxPoint x="920" y="550" as="targetPoint" />
            <Array as="points">
              <mxPoint x="660" y="165" />
              <mxPoint x="761" y="165" />
              <mxPoint x="761" y="640" />
            </Array>
          </mxGeometry>
        </mxCell>
        <mxCell id="nhrQdfe7mG7ORGk9pAJW-72" style="edgeStyle=orthogonalEdgeStyle;rounded=0;orthogonalLoop=1;jettySize=auto;html=1;exitX=0;exitY=1;exitDx=0;exitDy=0;entryX=1.017;entryY=0.197;entryDx=0;entryDy=0;entryPerimeter=0;" edge="1" parent="1" source="nhrQdfe7mG7ORGk9pAJW-1" target="nhrQdfe7mG7ORGk9pAJW-61">
          <mxGeometry relative="1" as="geometry">
            <mxPoint x="440" y="200" as="targetPoint" />
            <Array as="points">
              <mxPoint x="540" y="160" />
              <mxPoint x="441" y="160" />
              <mxPoint x="441" y="639" />
            </Array>
          </mxGeometry>
        </mxCell>
        <mxCell id="nhrQdfe7mG7ORGk9pAJW-1" value="CDs en oferta" style="rounded=0;whiteSpace=wrap;html=1;" vertex="1" parent="1">
          <mxGeometry x="540" y="90" width="120" height="60" as="geometry" />
        </mxCell>
        <mxCell id="nhrQdfe7mG7ORGk9pAJW-8" value="Título" style="rounded=0;whiteSpace=wrap;html=1;" vertex="1" parent="1">
          <mxGeometry x="480" y="200" width="120" height="60" as="geometry" />
        </mxCell>
        <mxCell id="nhrQdfe7mG7ORGk9pAJW-9" value="&amp;nbsp;Artista / País" style="rounded=0;whiteSpace=wrap;html=1;" vertex="1" parent="1">
          <mxGeometry x="480" y="260" width="120" height="60" as="geometry" />
        </mxCell>
        <mxCell id="nhrQdfe7mG7ORGk9pAJW-10" value="Compañía discográfica" style="rounded=0;whiteSpace=wrap;html=1;" vertex="1" parent="1">
          <mxGeometry x="480" y="440" width="120" height="60" as="geometry" />
        </mxCell>
        <mxCell id="nhrQdfe7mG7ORGk9pAJW-11" value="Precio" style="rounded=0;whiteSpace=wrap;html=1;" vertex="1" parent="1">
          <mxGeometry x="480" y="320" width="120" height="60" as="geometry" />
        </mxCell>
        <mxCell id="nhrQdfe7mG7ORGk9pAJW-12" value="Año de publicación" style="rounded=0;whiteSpace=wrap;html=1;" vertex="1" parent="1">
          <mxGeometry x="480" y="380" width="120" height="60" as="geometry" />
        </mxCell>
        <mxCell id="nhrQdfe7mG7ORGk9pAJW-13" value="- One night only&lt;span style=&quot;white-space: pre;&quot;&gt;&#x9;&lt;/span&gt;&lt;span style=&quot;white-space: pre;&quot;&gt;&#x9;&lt;/span&gt;&lt;br&gt;&lt;br&gt;&amp;nbsp;&lt;br&gt;&lt;br&gt;- Bee Gees / UK&lt;br&gt;&lt;br&gt;&lt;br&gt;&lt;br&gt;-10.90&lt;br&gt;&lt;br&gt;&lt;br&gt;&lt;br&gt;- 1998&lt;br&gt;&lt;br&gt;&lt;br&gt;&lt;br&gt;- Polydor" style="rounded=0;whiteSpace=wrap;html=1;" vertex="1" parent="1">
          <mxGeometry x="600" y="200" width="120" height="300" as="geometry" />
        </mxCell>
        <mxCell id="nhrQdfe7mG7ORGk9pAJW-32" value="Título" style="rounded=0;whiteSpace=wrap;html=1;" vertex="1" parent="1">
          <mxGeometry x="800" y="200" width="120" height="60" as="geometry" />
        </mxCell>
        <mxCell id="nhrQdfe7mG7ORGk9pAJW-33" value="&amp;nbsp;Artista / País" style="rounded=0;whiteSpace=wrap;html=1;" vertex="1" parent="1">
          <mxGeometry x="800" y="260" width="120" height="60" as="geometry" />
        </mxCell>
        <mxCell id="nhrQdfe7mG7ORGk9pAJW-34" value="Compañía discográfica" style="rounded=0;whiteSpace=wrap;html=1;" vertex="1" parent="1">
          <mxGeometry x="800" y="440" width="120" height="60" as="geometry" />
        </mxCell>
        <mxCell id="nhrQdfe7mG7ORGk9pAJW-35" value="Precio" style="rounded=0;whiteSpace=wrap;html=1;" vertex="1" parent="1">
          <mxGeometry x="800" y="320" width="120" height="60" as="geometry" />
        </mxCell>
        <mxCell id="nhrQdfe7mG7ORGk9pAJW-36" value="Año de publicación" style="rounded=0;whiteSpace=wrap;html=1;" vertex="1" parent="1">
          <mxGeometry x="800" y="380" width="120" height="60" as="geometry" />
        </mxCell>
        <mxCell id="nhrQdfe7mG7ORGk9pAJW-37" value="- When a man loves a woman&lt;br&gt;&lt;br&gt;&lt;br&gt;&lt;br&gt;- Percy Sledge / USA&lt;br&gt;&lt;br&gt;&lt;br&gt;&lt;br&gt;- 8.70&lt;br&gt;&lt;br&gt;&lt;br&gt;&lt;br&gt;- 1990&lt;br&gt;&lt;br&gt;&lt;br&gt;&lt;br&gt;- Atlantic" style="rounded=0;whiteSpace=wrap;html=1;" vertex="1" parent="1">
          <mxGeometry x="920" y="200" width="120" height="300" as="geometry" />
        </mxCell>
        <mxCell id="nhrQdfe7mG7ORGk9pAJW-38" value="Título" style="rounded=0;whiteSpace=wrap;html=1;" vertex="1" parent="1">
          <mxGeometry x="160" y="200" width="120" height="60" as="geometry" />
        </mxCell>
        <mxCell id="nhrQdfe7mG7ORGk9pAJW-39" value="&amp;nbsp;Artista / País" style="rounded=0;whiteSpace=wrap;html=1;" vertex="1" parent="1">
          <mxGeometry x="160" y="260" width="120" height="60" as="geometry" />
        </mxCell>
        <mxCell id="nhrQdfe7mG7ORGk9pAJW-40" value="Compañía discográfica" style="rounded=0;whiteSpace=wrap;html=1;" vertex="1" parent="1">
          <mxGeometry x="160" y="440" width="120" height="60" as="geometry" />
        </mxCell>
        <mxCell id="nhrQdfe7mG7ORGk9pAJW-41" value="Precio" style="rounded=0;whiteSpace=wrap;html=1;" vertex="1" parent="1">
          <mxGeometry x="160" y="320" width="120" height="60" as="geometry" />
        </mxCell>
        <mxCell id="nhrQdfe7mG7ORGk9pAJW-42" value="Año de publicación" style="rounded=0;whiteSpace=wrap;html=1;" vertex="1" parent="1">
          <mxGeometry x="160" y="380" width="120" height="60" as="geometry" />
        </mxCell>
        <mxCell id="nhrQdfe7mG7ORGk9pAJW-43" value="- Still got the blues&lt;br&gt;&lt;br&gt;&lt;br&gt;&lt;br&gt;- Gary Moore / UK&lt;br&gt;&lt;br&gt;&lt;br&gt;&lt;br&gt;- 10.20&lt;br&gt;&lt;br&gt;&lt;br&gt;&lt;br&gt;- 1990&lt;br&gt;&lt;br&gt;&lt;br&gt;&lt;br&gt;- Virgin records" style="rounded=0;whiteSpace=wrap;html=1;" vertex="1" parent="1">
          <mxGeometry x="280" y="200" width="120" height="300" as="geometry" />
        </mxCell>
        <mxCell id="nhrQdfe7mG7ORGk9pAJW-44" value="Título" style="rounded=0;whiteSpace=wrap;html=1;" vertex="1" parent="1">
          <mxGeometry x="480" y="580" width="120" height="60" as="geometry" />
        </mxCell>
        <mxCell id="nhrQdfe7mG7ORGk9pAJW-45" value="&amp;nbsp;Artista / País" style="rounded=0;whiteSpace=wrap;html=1;" vertex="1" parent="1">
          <mxGeometry x="480" y="640" width="120" height="60" as="geometry" />
        </mxCell>
        <mxCell id="nhrQdfe7mG7ORGk9pAJW-46" value="Compañía discográfica" style="rounded=0;whiteSpace=wrap;html=1;" vertex="1" parent="1">
          <mxGeometry x="480" y="820" width="120" height="60" as="geometry" />
        </mxCell>
        <mxCell id="nhrQdfe7mG7ORGk9pAJW-47" value="Precio" style="rounded=0;whiteSpace=wrap;html=1;" vertex="1" parent="1">
          <mxGeometry x="480" y="700" width="120" height="60" as="geometry" />
        </mxCell>
        <mxCell id="nhrQdfe7mG7ORGk9pAJW-48" value="Año de publicación" style="rounded=0;whiteSpace=wrap;html=1;" vertex="1" parent="1">
          <mxGeometry x="480" y="760" width="120" height="60" as="geometry" />
        </mxCell>
        <mxCell id="nhrQdfe7mG7ORGk9pAJW-49" value="- La canción de Juan Perro&lt;br&gt;&lt;br&gt;&lt;br&gt;&lt;br&gt;- Radio Futura / España&lt;br&gt;&lt;br&gt;&lt;br&gt;&lt;br&gt;- 9.90&lt;br&gt;&lt;br&gt;&lt;br&gt;&lt;br&gt;- 1987&lt;br&gt;&lt;br&gt;&lt;br&gt;&lt;br&gt;- Sony Music-Ariola" style="rounded=0;whiteSpace=wrap;html=1;" vertex="1" parent="1">
          <mxGeometry x="600" y="580" width="120" height="300" as="geometry" />
        </mxCell>
        <mxCell id="nhrQdfe7mG7ORGk9pAJW-56" value="Título" style="rounded=0;whiteSpace=wrap;html=1;" vertex="1" parent="1">
          <mxGeometry x="160" y="580" width="120" height="60" as="geometry" />
        </mxCell>
        <mxCell id="nhrQdfe7mG7ORGk9pAJW-57" value="&amp;nbsp;Artista / País" style="rounded=0;whiteSpace=wrap;html=1;" vertex="1" parent="1">
          <mxGeometry x="160" y="640" width="120" height="60" as="geometry" />
        </mxCell>
        <mxCell id="nhrQdfe7mG7ORGk9pAJW-58" value="Compañía discográfica" style="rounded=0;whiteSpace=wrap;html=1;" vertex="1" parent="1">
          <mxGeometry x="160" y="820" width="120" height="60" as="geometry" />
        </mxCell>
        <mxCell id="nhrQdfe7mG7ORGk9pAJW-59" value="Precio" style="rounded=0;whiteSpace=wrap;html=1;" vertex="1" parent="1">
          <mxGeometry x="160" y="700" width="120" height="60" as="geometry" />
        </mxCell>
        <mxCell id="nhrQdfe7mG7ORGk9pAJW-60" value="Año de publicación" style="rounded=0;whiteSpace=wrap;html=1;" vertex="1" parent="1">
          <mxGeometry x="160" y="760" width="120" height="60" as="geometry" />
        </mxCell>
        <mxCell id="nhrQdfe7mG7ORGk9pAJW-61" value="- Big Willie Style&lt;br&gt;&lt;br&gt;&lt;br&gt;&lt;br&gt;- Will Smith / USA&lt;br&gt;&lt;br&gt;&lt;br&gt;&lt;br&gt;- 9.90&lt;br&gt;&lt;br&gt;&lt;br&gt;&lt;br&gt;- 1997&lt;br&gt;&lt;br&gt;&lt;br&gt;&lt;br&gt;- Columbia" style="rounded=0;whiteSpace=wrap;html=1;" vertex="1" parent="1">
          <mxGeometry x="280" y="580" width="120" height="300" as="geometry" />
        </mxCell>
        <mxCell id="nhrQdfe7mG7ORGk9pAJW-62" value="Título" style="rounded=0;whiteSpace=wrap;html=1;" vertex="1" parent="1">
          <mxGeometry x="800" y="580" width="120" height="60" as="geometry" />
        </mxCell>
        <mxCell id="nhrQdfe7mG7ORGk9pAJW-63" value="&amp;nbsp;Artista / País" style="rounded=0;whiteSpace=wrap;html=1;" vertex="1" parent="1">
          <mxGeometry x="800" y="640" width="120" height="60" as="geometry" />
        </mxCell>
        <mxCell id="nhrQdfe7mG7ORGk9pAJW-64" value="Compañía discográfica" style="rounded=0;whiteSpace=wrap;html=1;" vertex="1" parent="1">
          <mxGeometry x="800" y="820" width="120" height="60" as="geometry" />
        </mxCell>
        <mxCell id="nhrQdfe7mG7ORGk9pAJW-65" value="Precio" style="rounded=0;whiteSpace=wrap;html=1;" vertex="1" parent="1">
          <mxGeometry x="800" y="700" width="120" height="60" as="geometry" />
        </mxCell>
        <mxCell id="nhrQdfe7mG7ORGk9pAJW-66" value="Año de publicación" style="rounded=0;whiteSpace=wrap;html=1;" vertex="1" parent="1">
          <mxGeometry x="800" y="760" width="120" height="60" as="geometry" />
        </mxCell>
        <mxCell id="nhrQdfe7mG7ORGk9pAJW-67" value="- The dock of the bay&lt;br&gt;&lt;br&gt;&lt;br&gt;&lt;br&gt;- Otis Redding / USA&lt;br&gt;&lt;br&gt;&lt;br&gt;&lt;br&gt;- 7.90&lt;br&gt;&lt;br&gt;&lt;br&gt;&lt;br&gt;- 1987&lt;br&gt;&lt;br&gt;&lt;br&gt;&lt;br&gt;- Atlantic" style="rounded=0;whiteSpace=wrap;html=1;" vertex="1" parent="1">
          <mxGeometry x="920" y="580" width="120" height="300" as="geometry" />
        </mxCell>
        <mxCell id="nhrQdfe7mG7ORGk9pAJW-76" value="" style="endArrow=classic;html=1;rounded=0;" edge="1" parent="1">
          <mxGeometry width="50" height="50" relative="1" as="geometry">
            <mxPoint x="440" y="639" as="sourcePoint" />
            <mxPoint x="480" y="640" as="targetPoint" />
          </mxGeometry>
        </mxCell>
      </root>
    </mxGraphModel>
  </diagram>
</mxfile>
